# xmcd
#
# Track frame offsets: 
#        150
#        15905
#        30255
#        45502
#        64845
#        80815
#        97370
#        112037
#        130345
#        142647
#        157342
#        170402
#        184337
#        194580
#        211775
#        223595
#
# Disc length: 3173 seconds
#
# Revision: 0
# Processed by: cddbd v1.4PL0 Copyright (c) Steve Scherf et al.
# Submitted via: ExactAudioCopy v0.95a3
#
DISCID=e50c6310
DTITLE=Crystal Gayle - Best Of The Best
DYEAR=1996
DGENRE=Country
TTITLE0=Long And Lasting Love
TTITLE1=You Never Give Up On Me
TTITLE2=Ready For The Times To Get Better
TTITLE3=Cry
TTITLE4=Like We Never Said Good-Bye
TTITLE5=When I Dream
TTITLE6=Living In These Troubled Times
TTITLE7=Hlf The Way
TTITLE8=Don't It Make My Brown Eyes Blue
TTITLE9=If You Never Chage Your Mind
TTITLE10=Talking In Your Sleep
TTITLE11=Nobody's Angel
TTITLE12=Beyond You
TTITLE13=Too Many Lovers
TTITLE14=Always
TTITLE15=He Is Beautiful
EXTD=
EXTT0=
EXTT1=
EXTT2=
EXTT3=
EXTT4=
EXTT5=
EXTT6=
EXTT7=
EXTT8=
EXTT9=
EXTT10=
EXTT11=
EXTT12=
EXTT13=
EXTT14=
EXTT15=
PLAYORDER=
